{
  "accessors": [
    {
      "bufferView": 2,
      "componentType": 5126,
      "count": 65534,
      "max": [
        27.330020904541016,
        27.250526428222656,
        6.19415283203125
      ],
      "min": [
        -30.331478118896484,
        -28.192052841186523,
        -1.516964077949524
      ],
      "type": "VEC3"
    },
    {
      "bufferView": 2,
      "byteOffset": 786408,
      "componentType": 5126,
      "count": 65534,
      "max": [
        0.9999960660934448,
        0.9998611807823181,
        0.9985079169273376
      ],
      "min": [
        -0.9999141693115234,
        -0.9999974370002747,
        -0.9999998211860657
      ],
      "type": "VEC3"
    },
    {
      "bufferView": 1,
      "componentType": 5126,
      "count": 65534,
      "max": [
        0.9991933703422546,
        0.9999516606330872
      ],
      "min": [
        2.052588388323784e-05,
        0.00036676949821412563
      ],
      "type": "VEC2"
    },
    {
      "bufferView": 0,
      "componentType": 5125,
      "count": 287967,
      "type": "SCALAR"
    },
    {
      "bufferView": 2,
      "byteOffset": 1572816,
      "componentType": 5126,
      "count": 65532,
      "max": [
        27.330018997192383,
        27.243017196655273,
        6.185351371765137
      ],
      "min": [
        4.147982597351074,
        -28.069215774536133,
        -1.516964077949524
      ],
      "type": "VEC3"
    },
    {
      "bufferView": 2,
      "byteOffset": 2359200,
      "componentType": 5126,
      "count": 65532,
      "max": [
        0.9999268054962158,
        0.999987006187439,
        0.9999011754989624
      ],
      "min": [
        -0.9999565482139587,
        -0.9999135136604309,
        -0.9999998211860657
      ],
      "type": "VEC3"
    },
    {
      "bufferView": 1,
      "byteOffset": 524272,
      "componentType": 5126,
      "count": 65532,
      "max": [
        0.9997391700744629,
        0.9999657273292542
      ],
      "min": [
        8.287403034046292e-05,
        0.000256112078204751
      ],
      "type": "VEC2"
    },
    {
      "bufferView": 0,
      "byteOffset": 1151868,
      "componentType": 5125,
      "count": 253647,
      "type": "SCALAR"
    },
    {
      "bufferView": 2,
      "byteOffset": 3145584,
      "componentType": 5126,
      "count": 65532,
      "max": [
        18.6938533782959,
        27.163774490356445,
        5.90884256362915
      ],
      "min": [
        -2.1394877433776855,
        -28.141756057739258,
        -6.571445465087891
      ],
      "type": "VEC3"
    },
    {
      "bufferView": 2,
      "byteOffset": 3931968,
      "componentType": 5126,
      "count": 65532,
      "max": [
        0.9999991059303284,
        0.9999962449073792,
        0.9999323487281799
      ],
      "min": [
        -0.9999750256538391,
        -0.9999968409538269,
        -0.9999999403953552
      ],
      "type": "VEC3"
    },
    {
      "bufferView": 1,
      "byteOffset": 1048528,
      "componentType": 5126,
      "count": 65532,
      "max": [
        0.9997267723083496,
        0.9999122023582458
      ],
      "min": [
        1.1021838872693479e-05,
        0.00026638503186404705
      ],
      "type": "VEC2"
    },
    {
      "bufferView": 0,
      "byteOffset": 2166456,
      "componentType": 5125,
      "count": 253347,
      "type": "SCALAR"
    },
    {
      "bufferView": 2,
      "byteOffset": 4718352,
      "componentType": 5126,
      "count": 65532,
      "max": [
        10.691965103149414,
        27.085254669189453,
        5.858373165130615
      ],
      "min": [
        -16.64727210998535,
        -28.140687942504883,
        -6.571445465087891
      ],
      "type": "VEC3"
    },
    {
      "bufferView": 2,
      "byteOffset": 5504736,
      "componentType": 5126,
      "count": 65532,
      "max": [
        0.9999831914901733,
        0.9999858736991882,
        0.9991861581802368
      ],
      "min": [
        -0.9999998807907104,
        -0.9999513626098633,
        -0.9999999403953552
      ],
      "type": "VEC3"
    },
    {
      "bufferView": 1,
      "byteOffset": 1572784,
      "componentType": 5126,
      "count": 65532,
      "max": [
        0.9996815323829651,
        0.9999379515647888
      ],
      "min": [
        1.6900794435059652e-05,
        0.0003250017762184143
      ],
      "type": "VEC2"
    },
    {
      "bufferView": 0,
      "byteOffset": 3179844,
      "componentType": 5125,
      "count": 274563,
      "type": "SCALAR"
    },
    {
      "bufferView": 2,
      "byteOffset": 6291120,
      "componentType": 5126,
      "count": 65532,
      "max": [
        -2.7266852855682373,
        27.127939224243164,
        5.285778522491455
      ],
      "min": [
        -21.773435592651367,
        -27.964963912963867,
        -6.225364685058594
      ],
      "type": "VEC3"
    },
    {
      "bufferView": 2,
      "byteOffset": 7077504,
      "componentType": 5126,
      "count": 65532,
      "max": [
        0.9999445676803589,
        0.9999969005584717,
        0.9994040727615356
      ],
      "min": [
        -0.9999995827674866,
        -0.9999549388885498,
        -0.9999997615814209
      ],
      "type": "VEC3"
    },
    {
      "bufferView": 1,
      "byteOffset": 2097040,
      "componentType": 5126,
      "count": 65532,
      "max": [
        0.9994039535522461,
        0.9997397661209106
      ],
      "min": [
        0.00031817067065276206,
        0.00034020072780549526
      ],
      "type": "VEC2"
    },
    {
      "bufferView": 0,
      "byteOffset": 4278096,
      "componentType": 5125,
      "count": 279432,
      "type": "SCALAR"
    },
    {
      "bufferView": 2,
      "byteOffset": 7863888,
      "componentType": 5126,
      "count": 65532,
      "max": [
        -12.357000350952148,
        27.250526428222656,
        5.701659679412842
      ],
      "min": [
        -30.316293716430664,
        -28.159379959106445,
        -2.5701117515563965
      ],
      "type": "VEC3"
    },
    {
      "bufferView": 2,
      "byteOffset": 8650272,
      "componentType": 5126,
      "count": 65532,
      "max": [
        0.9999092221260071,
        0.9999786019325256,
        0.9999300837516785
      ],
      "min": [
        -0.9999834299087524,
        -0.9999264478683472,
        -0.9999995827674866
      ],
      "type": "VEC3"
    },
    {
      "bufferView": 1,
      "byteOffset": 2621296,
      "componentType": 5126,
      "count": 65532,
      "max": [
        0.9996699690818787,
        0.9999426603317261
      ],
      "min": [
        1.548423279018607e-05,
        4.593736957758665e-05
      ],
      "type": "VEC2"
    },
    {
      "bufferView": 0,
      "byteOffset": 5395824,
      "componentType": 5125,
      "count": 254073,
      "type": "SCALAR"
    },
    {
      "bufferView": 2,
      "byteOffset": 9436656,
      "componentType": 5126,
      "count": 65532,
      "max": [
        3.2947335243225098,
        27.209848403930664,
        5.408476829528809
      ],
      "min": [
        -30.33147621154785,
        -28.148456573486328,
        -6.245371341705322
      ],
      "type": "VEC3"
    },
    {
      "bufferView": 2,
      "byteOffset": 10223040,
      "componentType": 5126,
      "count": 65532,
      "max": [
        0.9999853372573853,
        0.9999979138374329,
        0.999752402305603
      ],
      "min": [
        -0.9999998807907104,
        -0.9999998807907104,
        -0.9999997615814209
      ],
      "type": "VEC3"
    },
    {
      "bufferView": 1,
      "byteOffset": 3145552,
      "componentType": 5126,
      "count": 65532,
      "max": [
        0.9994653463363647,
        0.9999366402626038
      ],
      "min": [
        1.062673982232809e-05,
        3.597099566832185e-05
      ],
      "type": "VEC2"
    },
    {
      "bufferView": 0,
      "byteOffset": 6412116,
      "componentType": 5125,
      "count": 246777,
      "type": "SCALAR"
    },
    {
      "bufferView": 2,
      "byteOffset": 11009424,
      "componentType": 5126,
      "count": 65532,
      "max": [
        10.716741561889648,
        27.170217514038086,
        5.856975078582764
      ],
      "min": [
        -6.855255603790283,
        -28.192052841186523,
        -6.56321907043457
      ],
      "type": "VEC3"
    },
    {
      "bufferView": 2,
      "byteOffset": 11795808,
      "componentType": 5126,
      "count": 65532,
      "max": [
        0.9999986886978149,
        0.9999997019767761,
        0.9988157153129578
      ],
      "min": [
        -0.9999915361404419,
        -0.9999983310699463,
        -0.9999998807907104
      ],
      "type": "VEC3"
    },
    {
      "bufferView": 1,
      "byteOffset": 3669808,
      "componentType": 5126,
      "count": 65532,
      "max": [
        0.9992331862449646,
        0.9999825954437256
      ],
      "min": [
        1.4920253306627274e-05,
        0.0001235942036146298
      ],
      "type": "VEC2"
    },
    {
      "bufferView": 0,
      "byteOffset": 7399224,
      "componentType": 5125,
      "count": 256026,
      "type": "SCALAR"
    },
    {
      "bufferView": 2,
      "byteOffset": 12582192,
      "componentType": 5126,
      "count": 6452,
      "max": [
        10.779452323913574,
        27.201250076293945,
        5.904737949371338
      ],
      "min": [
        4.866611003875732,
        -28.18612289428711,
        -6.3467326164245605
      ],
      "type": "VEC3"
    },
    {
      "bufferView": 2,
      "byteOffset": 12659616,
      "componentType": 5126,
      "count": 6452,
      "max": [
        0.9999490976333618,
        0.9999847412109375,
        0.9979143738746643
      ],
      "min": [
        -0.9989907145500183,
        -0.9999917149543762,
        -0.9999982714653015
      ],
      "type": "VEC3"
    },
    {
      "bufferView": 1,
      "byteOffset": 4194064,
      "componentType": 5126,
      "count": 6452,
      "max": [
        0.9991548657417297,
        0.9994456768035889
      ],
      "min": [
        0.0007681581773795187,
        0.0008734213188290596
      ],
      "type": "VEC2"
    },
    {
      "bufferView": 0,
      "byteOffset": 8423328,
      "componentType": 5125,
      "count": 11370,
      "type": "SCALAR"
    }
  ],
  "asset": {
    "extras": {
      "author": "Andrea Spognetta (Spogna) (https://sketchfab.com/spogna)",
      "license": "CC-BY-NC-4.0 (http://creativecommons.org/licenses/by-nc/4.0/)",
      "source": "https://sketchfab.com/3d-models/skyscrapers-rawscan-158a568d06c14e388bfa34a911559c73",
      "title": "Skyscrapers .::RAWscan::."
    },
    "generator": "Sketchfab-12.67.0",
    "version": "2.0"
  },
  "bufferViews": [
    {
      "buffer": 0,
      "byteLength": 8468808,
      "name": "floatBufferViews",
      "target": 34963
    },
    {
      "buffer": 0,
      "byteLength": 4245680,
      "byteOffset": 8468808,
      "byteStride": 8,
      "name": "floatBufferViews",
      "target": 34962
    },
    {
      "buffer": 0,
      "byteLength": 12737040,
      "byteOffset": 12714488,
      "byteStride": 12,
      "name": "floatBufferViews",
      "target": 34962
    }
  ],
  "buffers": [
    {
      "byteLength": 25451528,
      "uri": "scene.bin"
    }
  ],
  "extensionsUsed": [
    "KHR_materials_unlit"
  ],
  "images": [
    {
      "uri": "textures/material0_baseColor.jpeg"
    }
  ],
  "materials": [
    {
      "doubleSided": true,
      "extensions": {
        "KHR_materials_unlit": {}
      },
      "name": "material0",
      "pbrMetallicRoughness": {
        "baseColorTexture": {
          "index": 0
        },
        "metallicFactor": 0.0
      }
    }
  ],
  "meshes": [
    {
      "name": "Model_material0_0",
      "primitives": [
        {
          "attributes": {
            "NORMAL": 1,
            "POSITION": 0,
            "TEXCOORD_0": 2
          },
          "indices": 3,
          "material": 0,
          "mode": 4
        }
      ]
    },
    {
      "name": "Model_material0_0",
      "primitives": [
        {
          "attributes": {
            "NORMAL": 5,
            "POSITION": 4,
            "TEXCOORD_0": 6
          },
          "indices": 7,
          "material": 0,
          "mode": 4
        }
      ]
    },
    {
      "name": "Model_material0_0",
      "primitives": [
        {
          "attributes": {
            "NORMAL": 9,
            "POSITION": 8,
            "TEXCOORD_0": 10
          },
          "indices": 11,
          "material": 0,
          "mode": 4
        }
      ]
    },
    {
      "name": "Model_material0_0",
      "primitives": [
        {
          "attributes": {
            "NORMAL": 13,
            "POSITION": 12,
            "TEXCOORD_0": 14
          },
          "indices": 15,
          "material": 0,
          "mode": 4
        }
      ]
    },
    {
      "name": "Model_material0_0",
      "primitives": [
        {
          "attributes": {
            "NORMAL": 17,
            "POSITION": 16,
            "TEXCOORD_0": 18
          },
          "indices": 19,
          "material": 0,
          "mode": 4
        }
      ]
    },
    {
      "name": "Model_material0_0",
      "primitives": [
        {
          "attributes": {
            "NORMAL": 21,
            "POSITION": 20,
            "TEXCOORD_0": 22
          },
          "indices": 23,
          "material": 0,
          "mode": 4
        }
      ]
    },
    {
      "name": "Model_material0_0",
      "primitives": [
        {
          "attributes": {
            "NORMAL": 25,
            "POSITION": 24,
            "TEXCOORD_0": 26
          },
          "indices": 27,
          "material": 0,
          "mode": 4
        }
      ]
    },
    {
      "name": "Model_material0_0",
      "primitives": [
        {
          "attributes": {
            "NORMAL": 29,
            "POSITION": 28,
            "TEXCOORD_0": 30
          },
          "indices": 31,
          "material": 0,
          "mode": 4
        }
      ]
    },
    {
      "name": "Model_material0_0",
      "primitives": [
        {
          "attributes": {
            "NORMAL": 33,
            "POSITION": 32,
            "TEXCOORD_0": 34
          },
          "indices": 35,
          "material": 0,
          "mode": 4
        }
      ]
    }
  ],
  "nodes": [
    {
      "children": [
        1
      ],
      "matrix": [
        1.0,
        0.0,
        0.0,
        0.0,
        0.0,
        2.220446049250313e-16,
        -1.0,
        0.0,
        0.0,
        1.0,
        2.220446049250313e-16,
        0.0,
        0.0,
        0.0,
        0.0,
        1.0
      ],
      "name": "Sketchfab_model"
    },
    {
      "children": [
        2
      ],
      "matrix": [
        1.0,
        0.0,
        0.0,
        0.0,
        0.0,
        -1.0,
        0.0,
        0.0,
        0.0,
        0.0,
        -1.0,
        0.0,
        0.0,
        0.0,
        0.0,
        1.0
      ],
      "name": "model.fbx"
    },
    {
      "children": [
        3
      ],
      "name": "RootNode"
    },
    {
      "children": [
        4,
        5,
        6,
        7,
        8,
        9,
        10,
        11,
        12
      ],
      "name": "Model"
    },
    {
      "mesh": 0,
      "name": "Model_material0_0"
    },
    {
      "mesh": 1,
      "name": "Model_material0_0"
    },
    {
      "mesh": 2,
      "name": "Model_material0_0"
    },
    {
      "mesh": 3,
      "name": "Model_material0_0"
    },
    {
      "mesh": 4,
      "name": "Model_material0_0"
    },
    {
      "mesh": 5,
      "name": "Model_material0_0"
    },
    {
      "mesh": 6,
      "name": "Model_material0_0"
    },
    {
      "mesh": 7,
      "name": "Model_material0_0"
    },
    {
      "mesh": 8,
      "name": "Model_material0_0"
    }
  ],
  "samplers": [
    {
      "magFilter": 9729,
      "minFilter": 9987,
      "wrapS": 10497,
      "wrapT": 10497
    }
  ],
  "scene": 0,
  "scenes": [
    {
      "name": "Sketchfab_Scene",
      "nodes": [
        0
      ]
    }
  ],
  "textures": [
    {
      "sampler": 0,
      "source": 0
    }
  ]
}
